<?xml version="1.0" encoding="UTF-8" standalone="no"?>
<svg
   xmlns:dc="http://purl.org/dc/elements/1.1/"
   xmlns:cc="http://creativecommons.org/ns#"
   xmlns:rdf="http://www.w3.org/1999/02/22-rdf-syntax-ns#"
   xmlns:svg="http://www.w3.org/2000/svg"
   xmlns="http://www.w3.org/2000/svg"
   xmlns:sodipodi="http://sodipodi.sourceforge.net/DTD/sodipodi-0.dtd"
   xmlns:inkscape="http://www.inkscape.org/namespaces/inkscape"
   version="1.1"
   id="svg130"
   width="100"
   height="100"
   viewBox="0 0 100 100"
   sodipodi:docname="FCC Logo.svg"
   inkscape:version="1.0.2 (1.0.2+r75+1)">
  <metadata
     id="metadata136">
    <rdf:RDF>
      <cc:Work
         rdf:about="">
        <dc:format>image/svg+xml</dc:format>
        <dc:type
           rdf:resource="http://purl.org/dc/dcmitype/StillImage" />
        <dc:title></dc:title>
      </cc:Work>
    </rdf:RDF>
  </metadata>
  <defs
     id="defs134" />
  <sodipodi:namedview
     pagecolor="#ffffff"
     bordercolor="#666666"
     borderopacity="1"
     objecttolerance="10"
     gridtolerance="10"
     guidetolerance="10"
     inkscape:pageopacity="0"
     inkscape:pageshadow="2"
     inkscape:window-width="1920"
     inkscape:window-height="1012"
     id="namedview132"
     showgrid="false"
     inkscape:zoom="4.1432038"
     inkscape:cx="82.895162"
     inkscape:cy="29.266298"
     inkscape:window-x="1920"
     inkscape:window-y="32"
     inkscape:window-maximized="1"
     inkscape:current-layer="g138" />
  <g
     inkscape:groupmode="layer"
     inkscape:label="Image"
     id="g138">
    <path
       style="fill:none;stroke:#ffffff;stroke-width:2;stroke-linecap:butt;stroke-linejoin:miter;stroke-opacity:1"
       d="m 19.516442,21.317384 c 0,0 -30.913943,26.856461 -0.150084,60.547697 0,0 -31.085651,-28.536192 0.150084,-60.547697 z"
       id="path142"
       sodipodi:nodetypes="ccc" />
    <path
       style="fill:none;stroke:#ffffff;stroke-width:2;stroke-linecap:butt;stroke-linejoin:miter;stroke-opacity:1"
       d="m 81.179553,21.487804 c 0,0 30.521117,30.269093 0.236115,59.987787 -1.095494,-0.05378 30.616692,-25.327979 -0.236115,-59.987787 z"
       id="path142-3"
       sodipodi:nodetypes="ccc" />
    <path
       style="fill:none;stroke:#ffffff;stroke-width:0.999974px;stroke-linecap:butt;stroke-linejoin:miter;stroke-opacity:1"
       d="m 47.735331,24.183794 c 1.339137,6.87658 -3.334389,13.637759 -3.334389,13.637759 0,0 -13.41424,16.867227 -12.227206,22.110681 -0.08525,4.4464 9.009899,17.202835 9.009899,17.202835 0,0 -1.84997,-9.76938 -1.565992,-12.916613 0.569121,-4.889692 6.58581,-10.232884 6.58581,-10.232884 1.717131,-1.458078 3.010296,-2.939159 4.354814,-6.352115 1.536429,0.584689 2.123756,3.513944 2.123756,3.513944 0.508356,6.667791 -1.244214,12.163618 -1.244214,12.163618 -0.817612,6.263146 9.512606,0.835869 9.782197,2.818872 0.803673,2.884493 0.210961,6.763139 -2.188161,10.792795 6.662196,0.0076 10.661743,-13.148291 10.661743,-13.148291 C 69.027512,54.281313 64.72425,49.863442 64.131715,49.22742 62.062974,52.143983 59.039141,52.889439 58.17922,52.45649 59.216278,50.692905 59.803539,42.482863 58.988949,38.655542 58.465663,37.277235 54.551694,25.740249 47.735331,24.183794 Z"
       id="path164"
       sodipodi:nodetypes="cccccccccccccccc" />
    <path
       style="fill:#ffffff;stroke:#ffffff;stroke-width:1.5;stroke-linecap:round;paint-order:stroke fill markers"
       d="m 60.138185,76.181197 c 0,-0.02363 0.210735,-0.499108 0.468302,-1.056609 1.100077,-2.381112 1.517931,-4.375366 1.425626,-6.803947 -0.130084,-3.422578 -0.336229,-3.552259 -4.508147,-2.835969 -4.015189,0.68938 -5.321552,0.403124 -5.543106,-1.214635 -0.04637,-0.338603 -0.0029,-0.779047 0.118415,-1.198957 0.748436,-2.591171 1.187668,-6.096372 1.187094,-9.473345 -3.62e-4,-2.403968 -0.01671,-2.584886 -0.317094,-3.518701 -0.5207,-1.618736 -1.326492,-2.640639 -2.405757,-3.050975 -0.327277,-0.12443 -0.347417,-0.110059 -0.538526,0.384236 -0.432603,1.118906 -1.471129,3.088968 -2.020154,3.832189 -0.318703,0.431429 -1.364565,1.544698 -2.324139,2.473931 -2.735526,2.649028 -4.309371,4.657491 -5.48479,6.999414 -1.390171,2.769799 -1.458285,4.225009 -0.505183,10.792894 0.225716,1.555423 0.391098,2.847337 0.367516,2.87092 -0.02358,0.02358 -0.49531,-0.651673 -1.048283,-1.500568 -2.652527,-4.072016 -5.046342,-8.501829 -5.771048,-10.679466 -0.492847,-1.480934 -0.656933,-2.792843 -0.478839,-3.828444 0.61083,-3.551909 4.573521,-10.295088 11.16736,-19.003121 2.158937,-2.851161 3.529241,-5.85347 4.274416,-9.365162 0.206162,-0.971556 0.271435,-1.696413 0.279821,-3.107425 0.006,-1.012159 0.05383,-1.840323 0.106256,-1.840363 0.190278,-1.48e-4 1.128078,0.523804 1.839169,1.027549 1.124984,0.796953 2.843238,2.679377 3.8906,4.262328 1.79759,2.716823 3.951635,7.409005 4.274997,9.312275 0.20488,1.205904 0.203851,6.395716 -0.0016,8.228753 -0.206986,1.846454 -0.547185,3.481356 -0.858035,4.123488 -0.137384,0.283797 -0.24979,0.578205 -0.24979,0.654237 0,0.07604 0.282645,0.22218 0.6281,0.32477 1.422789,0.422522 3.601796,-0.442721 5.355243,-2.126467 l 0.740897,-0.711446 0.48614,0.636462 c 1.637564,2.143914 2.960506,5.07811 3.714847,8.239272 0.395606,1.657848 0.697112,3.845565 0.63112,4.579413 -0.115312,1.282309 -2.196816,5.85402 -3.681773,8.086462 -0.909466,1.367264 -2.540297,3.128483 -3.418975,3.69233 -0.529375,0.339697 -1.800651,0.900747 -1.800651,0.794677 z"
       id="path186" />
  </g>
</svg>
