<?xml version="1.0" encoding="UTF-8" standalone="no"?>
<svg
   xmlns:dc="http://purl.org/dc/elements/1.1/"
   xmlns:cc="http://creativecommons.org/ns#"
   xmlns:rdf="http://www.w3.org/1999/02/22-rdf-syntax-ns#"
   xmlns:svg="http://www.w3.org/2000/svg"
   xmlns="http://www.w3.org/2000/svg"
   xmlns:sodipodi="http://sodipodi.sourceforge.net/DTD/sodipodi-0.dtd"
   xmlns:inkscape="http://www.inkscape.org/namespaces/inkscape"
   width="100"
   height="100"
   viewBox="0 0 26.458333 26.458334"
   version="1.1"
   id="svg8"
   inkscape:version="1.0.2 (1.0.2+r75+1)"
   sodipodi:docname="Logo A Final2.svg"
   title="Logo"><defs
   id="defs2" />
<sodipodi:namedview
   id="base"
   pagecolor="#ffffff"
   bordercolor="#666666"
   borderopacity="1.0"
   inkscape:pageopacity="0.0"
   inkscape:pageshadow="2"
   inkscape:zoom="5.6568543"
   inkscape:cx="22.98748"
   inkscape:cy="47.190595"
   inkscape:document-units="mm"
   inkscape:current-layer="layer1"
   inkscape:document-rotation="0"
   showgrid="false"
   units="px"
   inkscape:window-width="1920"
   inkscape:window-height="1012"
   inkscape:window-x="1920"
   inkscape:window-y="32"
   inkscape:window-maximized="1" />
<metadata
   id="metadata5">
  <rdf:RDF>
    <cc:Work
       rdf:about="">
      <dc:format>image/svg+xml</dc:format>
      <dc:type
         rdf:resource="http://purl.org/dc/dcmitype/StillImage" />
      <dc:title></dc:title>
    </cc:Work>
  </rdf:RDF>
</metadata>
<g
   inkscape:label="Layer 1"
   inkscape:groupmode="layer"
   id="layer1">
  <path
     style="fill:#000000;stroke-width:1.05602;paint-order:stroke fill markers"
     id="path837"
     d="m 3.8913123,23.948557 c 0.02604,-0.10662 0.043975,-0.215428 0.078114,-0.319903 0.1777968,-0.544143 0.4325891,-1.133512 0.6800564,-1.639783 0.4614224,-0.943974 1.0127584,-1.923033 1.5681822,-2.812151 0.3918886,-0.627338 0.8111952,-1.238206 1.2167949,-1.857308 1.8991599,-2.721686 4.0874472,-5.246125 6.4852192,-7.5674287 1.238598,-1.1991003 1.69147,-1.5556618 2.957621,-2.6388085 0.920497,-0.7542145 1.861843,-1.4886399 2.874157,-2.1253004 0.200022,-0.1257917 0.819229,-0.4731602 0.611502,-0.3597006 -1.357028,0.5978767 -0.557525,0.350871 -0.557525,0.350871 0.124558,-0.052041 0.209438,-0.092051 0.332926,-0.1307169 0.03946,-0.012355 0.07907,-0.01675 0.07874,-0.018661 -0.0033,-0.021677 -0.03558,-0.027288 -0.05488,-0.038716 -0.652084,-0.1521062 1.747988,-0.9877976 1.342885,-0.8456165 -1.626149,0.5707372 -1.177849,0.521838 -1.892656,1.1779079 -1.354878,1.3552935 -2.272119,3.0501609 -3.008958,4.7809581 -0.237815,0.5586066 -0.440692,1.1305756 -0.661038,1.6958626 -1.084282,3.183837 -1.788313,6.470913 -2.335779,9.776328 -0.124564,0.927756 -0.327272,1.84954 -0.350775,2.786817 0.02354,0.71197 1.4721,-0.611868 1.631533,-0.825915 0.0021,-0.0013 -0.04895,-0.231392 -0.04996,-0.236421 -0.04744,-0.97988 -0.377354,-1.912325 -0.703978,-2.8314 C 13.526566,18.553335 12.5335,17.023099 11.485794,15.534508 11.066384,14.935845 10.592561,14.37571 10.15503,13.790015 9.820217,13.14951 8.0251562,14.233401 8.6031112,14.7047 c 0.5324524,0.259028 1.0902557,0.474314 1.6430338,0.69027 0.205565,0.06634 0.407098,0.14574 0.616668,0.198998 1.365318,0.347027 2.872149,0.41494 4.258516,0.144434 0.469399,-0.09159 0.923076,-0.247035 1.384613,-0.370555 0.478874,-0.189117 0.969668,-0.352093 1.436628,-0.567374 0.49531,-0.228352 0.978116,-0.483723 1.445755,-0.761495 1.879841,-1.116593 2.580716,-1.426475 3.879054,-2.903057 C 24.41762,9.8277696 25.00349,8.6404301 25.338455,7.9072188 25.496636,7.5047861 26.19092,5.7289608 26.264777,4.1909766 26.324202,2.9535632 26.252867,1.910994 25.187292,1.0464581 23.839997,-0.04655066 21.961304,-0.0295783 20.871297,0.01513955 20.11909,0.03442438 18.647201,0.34253997 17.5752,0.65961824 14.656737,1.5228469 11.903991,2.9839237 9.4282863,4.6852337 7.057521,6.3144277 4.6790189,8.6004684 2.986272,10.892906 2.1871879,11.975085 1.2729832,13.399366 0.91945867,14.346073 0.70577286,14.901724 0.1849088,16.55179 0.05481485,17.695842 c -0.19692106,1.73173 0.13121912,3.912865 1.07379805,5.44554 0.43078,0.700467 1.0293009,1.315981 1.6999016,1.80869 1.778388,1.306631 4.3068284,1.467352 4.8872155,1.448569 0.9591407,0.0094 1.9639001,-0.135408 2.916777,-0.357208 5.207598,-1.212156 9.510553,-4.914782 12.383616,-9.169248 C 23.696388,15.86484 24.47249,14.467522 24.799555,13.70101 24.920368,13.435733 25.400042,11.790824 26.4,8.2553932 l -0.05398,0.024939 v 0 c 0,0 -2.026678,5.3806108 -2.186583,5.6976688 -0.622147,1.096324 -1.201729,2.189824 -1.916532,3.215734 -1.665487,2.390353 -3.103613,3.899994 -5.416452,5.714696 -0.688264,0.540024 -1.420799,1.044277 -2.219454,1.415187 C 12.178311,25.45155 9.3767463,25.671876 8.7928657,25.662395 7.6951446,25.65403 5.7750993,25.518967 4.0049125,24.257266 3.3378066,23.781787 2.7356357,23.191451 2.2911992,22.51442 1.3066176,21.014563 0.91769596,18.960367 1.0764928,17.220627 1.1785212,16.102843 1.6005806,14.635784 1.8586085,13.94057 2.1299737,13.226323 3.0615314,11.60503 3.836929,10.544061 4.7008682,9.3619393 5.6918377,8.2627181 6.7535244,7.2428977 9.6239089,4.4857002 12.981577,2.3310625 16.863565,1.1813578 c 1.032501,-0.30578986 2.635148,-0.55658369 3.180167,-0.59542979 0.480964,-0.0527961 2.76315,0.0227817 4.010654,1.10169309 1.014611,0.8774929 1.055055,1.8607379 0.994117,3.0812419 -0.08003,1.6031331 -0.728955,3.2748538 -0.926301,3.6684416 -0.220172,0.4425487 -0.971323,1.8730884 -2.139009,3.1649164 -0.411397,0.455135 -0.888333,0.848574 -1.33957,1.268785 -0.194883,0.160473 -0.199363,0.154908 -0.417834,0.305915 -1.023685,0.658439 -1.48981,0.852932 -2.606344,1.299284 -0.441522,0.118023 -0.875492,0.266778 -1.324561,0.354062 -1.549205,0.301098 -3.146482,0.198556 -4.611904,-0.364428 -0.519376,-0.219942 -1.023632,-0.466268 -1.529882,-0.712765 -0.5853835,-0.327295 -2.1754003,0.52462 -1.5559528,0.945738 0.5309135,0.511669 0.981793,1.097569 1.4607518,1.65312 1.118442,1.421458 2.111641,2.940957 2.716091,4.641422 0.292762,0.934262 0.592046,1.892042 0.511438,2.880776 -0.01975,0.219082 -0.0068,0.03256 -0.01009,0.201941 -4.84e-4,0.02594 -0.02814,0.08836 -0.0038,0.07772 0.07882,0.241788 1.729854,-0.478597 1.626694,-0.809284 -0.0238,-0.200568 -0.01646,-0.411863 -0.01399,-0.612849 0.0085,-0.676645 0.05478,-1.352737 0.127728,-2.025624 0.392835,-3.281707 1.020606,-6.545985 2.174402,-9.664663 0.236523,-0.569172 0.45334,-1.1464105 0.709583,-1.7075138 0.79689,-1.7449712 1.817944,-3.5183124 3.279414,-4.8253734 0.09604,-0.074467 0.680155,-0.4704923 0.570316,-0.4168542 -1.18859,0.5804268 -2.863899,1.7174462 0,0 0.02893,-0.017362 -0.01646,-0.1107061 -0.02697,-0.1212992 -0.02601,-0.0315 -0.06488,-0.087084 -0.10636,-0.1043199 -0.177213,-0.073633 -0.43425,0.1001346 -0.573083,0.1578623 -1.935586,0.9241477 -3.685491,2.1123797 -5.270438,3.5274234 -1.170405,1.0407453 -1.655547,1.4466945 -2.807682,2.5879788 -2.367169,2.34487 -4.5362671,4.874812 -6.4580725,7.575871 -1.1613333,1.677629 -1.3219984,1.846111 -2.3057112,3.484011 -0.6489558,1.080528 -1.2837941,2.195176 -1.6777261,3.390965 l 1.3714921,-0.641568 z"
     sodipodi:nodetypes="cssscscsccsccscscccccccccccscsssccccssscssscsscccscssscssscssscsscscccsccccccccccccsccccsccscsccc" />
</g>
</svg>
