<?xml version="1.0" encoding="UTF-8" standalone="no"?>
<svg
   xmlns:dc="http://purl.org/dc/elements/1.1/"
   xmlns:cc="http://creativecommons.org/ns#"
   xmlns:rdf="http://www.w3.org/1999/02/22-rdf-syntax-ns#"
   xmlns:svg="http://www.w3.org/2000/svg"
   xmlns="http://www.w3.org/2000/svg"
   xmlns:sodipodi="http://sodipodi.sourceforge.net/DTD/sodipodi-0.dtd"
   xmlns:inkscape="http://www.inkscape.org/namespaces/inkscape"
   width="512"
   height="512"
   viewBox="0 0 135.46666 135.46666"
   version="1.1"
   id="svg8"
   inkscape:version="1.0.2 (1.0.2+r75+1)"
   sodipodi:docname="Cloud Computing2.svg">
  <defs
     id="defs2" />
  <sodipodi:namedview
     id="base"
     pagecolor="#ffffff"
     bordercolor="#666666"
     borderopacity="1.0"
     inkscape:pageopacity="0.0"
     inkscape:pageshadow="2"
     inkscape:zoom="0.70000001"
     inkscape:cx="127.05491"
     inkscape:cy="389.10724"
     inkscape:document-units="mm"
     inkscape:current-layer="layer1"
     inkscape:document-rotation="0"
     showgrid="false"
     units="px"
     inkscape:window-width="1920"
     inkscape:window-height="1012"
     inkscape:window-x="1920"
     inkscape:window-y="32"
     inkscape:window-maximized="1">
    <inkscape:grid
       type="xygrid"
       id="grid833" />
  </sodipodi:namedview>
  <metadata
     id="metadata5">
    <rdf:RDF>
      <cc:Work
         rdf:about="">
        <dc:format>image/svg+xml</dc:format>
        <dc:type
           rdf:resource="http://purl.org/dc/dcmitype/StillImage" />
        <dc:title></dc:title>
      </cc:Work>
    </rdf:RDF>
  </metadata>
  <g
     inkscape:label="Layer 1"
     inkscape:groupmode="layer"
     id="layer1">
    <path
       style="fill:none;stroke:#000000;stroke-width:5.2137;stroke-linecap:butt;stroke-linejoin:miter;stroke-miterlimit:4;stroke-dasharray:none;stroke-opacity:1"
       d="M 20.179155,80.842419 H 116.63283 C 147.45341,73.752553 131.6307,14.041285 91.824661,32.173703 90.562041,-9.4808809 26.720173,-8.6641323 33.213436,44.346436 0.26623364,27.930647 -9.1402438,77.063831 20.179155,80.842419 Z"
       id="path841"
       sodipodi:nodetypes="ccccc" />
    <path
       style="fill:none;stroke:#000000;stroke-width:5.2137;stroke-linecap:butt;stroke-linejoin:round;stroke-miterlimit:4;stroke-dasharray:none;stroke-opacity:1"
       d="m 27.584352,58.684144 h 81.227908 c 4.87367,0 4.8737,22.158279 0,22.158275 H 27.999723 c -4.873674,4e-6 -5.289046,-22.158275 -0.415373,-22.158275 z"
       id="path843"
       sodipodi:nodetypes="cccccc" />
    <path
       style="fill:none;stroke:#000000;stroke-width:5.2137;stroke-linecap:butt;stroke-linejoin:round;stroke-miterlimit:4;stroke-dasharray:none;stroke-opacity:1"
       d="M 35.820292,70.414996 H 93.171123 Z"
       id="path845"
       sodipodi:nodetypes="ccc" />
    <circle
       style="fill:#000000;stroke:#000000;stroke-width:5.2137;stroke-linecap:butt;stroke-linejoin:round;stroke-miterlimit:4;stroke-dasharray:none;paint-order:stroke fill markers"
       id="path847"
       sodipodi:type="arc"
       sodipodi:cx="102.2951"
       sodipodi:cy="70.414993"
       sodipodi:rx="2.8305688"
       sodipodi:ry="2.8305688"
       sodipodi:start="0"
       sodipodi:end="6.2831329"
       sodipodi:arc-type="slice"
       d="m 105.12567,70.414993 a 2.8305688,2.8305688 0 0 1 -2.83054,2.830569 2.8305688,2.8305688 0 0 1 -2.830601,-2.830495 2.8305688,2.8305688 0 0 1 2.830461,-2.830643 2.8305688,2.8305688 0 0 1 2.83068,2.830421 l -2.83057,1.48e-4 z" />
    <path
       style="fill:none;stroke:#000000;stroke-width:5.2137;stroke-linecap:butt;stroke-linejoin:round;stroke-miterlimit:4;stroke-dasharray:none;stroke-opacity:1"
       d="m 27.36063,82.145992 h 81.22791 c 4.87367,0 4.8737,22.158298 0,22.158288 H 27.776003 c -4.873675,10e-6 -5.289049,-22.158288 -0.415375,-22.158288 z"
       id="path843-3"
       sodipodi:nodetypes="cccccc" />
    <path
       style="fill:none;stroke:#000000;stroke-width:5.2137;stroke-linecap:butt;stroke-linejoin:round;stroke-miterlimit:4;stroke-dasharray:none;stroke-opacity:1"
       d="M 35.596569,93.876844 H 92.947401 Z"
       id="path845-6"
       sodipodi:nodetypes="ccc" />
    <circle
       style="fill:#000000;stroke:#000000;stroke-width:5.2137;stroke-linecap:butt;stroke-linejoin:round;stroke-miterlimit:4;stroke-dasharray:none;paint-order:stroke fill markers"
       id="path847-7"
       sodipodi:type="arc"
       sodipodi:cx="102.0714"
       sodipodi:cy="93.876854"
       sodipodi:rx="2.8305688"
       sodipodi:ry="2.8305688"
       sodipodi:start="0"
       sodipodi:end="6.2831329"
       sodipodi:arc-type="slice"
       d="m 104.90197,93.876854 a 2.8305688,2.8305688 0 0 1 -2.83053,2.830569 2.8305688,2.8305688 0 0 1 -2.830605,-2.830495 2.8305688,2.8305688 0 0 1 2.830455,-2.830643 2.8305688,2.8305688 0 0 1 2.83068,2.830421 l -2.83057,1.48e-4 z" />
    <path
       style="fill:none;stroke:#000000;stroke-width:5.2137;stroke-linecap:butt;stroke-linejoin:round;stroke-miterlimit:4;stroke-dasharray:none;stroke-opacity:1"
       d="m 27.584352,105.60755 h 81.227908 c 4.87367,0 4.8737,22.1583 0,22.1583 H 27.999723 c -4.873674,0 -5.289046,-22.1583 -0.415373,-22.1583 z"
       id="path843-5"
       sodipodi:nodetypes="cccccc" />
    <path
       style="fill:none;stroke:#000000;stroke-width:5.2137;stroke-linecap:butt;stroke-linejoin:round;stroke-miterlimit:4;stroke-dasharray:none;stroke-opacity:1"
       d="M 35.820292,117.33841 H 93.171123 Z"
       id="path845-3"
       sodipodi:nodetypes="ccc" />
    <circle
       style="fill:#000000;stroke:#000000;stroke-width:5.2137;stroke-linecap:butt;stroke-linejoin:round;stroke-miterlimit:4;stroke-dasharray:none;paint-order:stroke fill markers"
       id="path847-5"
       sodipodi:type="arc"
       sodipodi:cx="102.29513"
       sodipodi:cy="117.33839"
       sodipodi:rx="2.8305688"
       sodipodi:ry="2.8305688"
       sodipodi:start="0"
       sodipodi:end="6.2831329"
       sodipodi:arc-type="slice"
       d="m 105.1257,117.33839 a 2.8305688,2.8305688 0 0 1 -2.83054,2.83057 2.8305688,2.8305688 0 0 1 -2.830601,-2.8305 2.8305688,2.8305688 0 0 1 2.830461,-2.83064 2.8305688,2.8305688 0 0 1 2.83068,2.83042 l -2.83057,1.5e-4 z" />
  </g>
</svg>
