<?xml version="1.0" encoding="UTF-8" standalone="no"?>
<svg
   xmlns:dc="http://purl.org/dc/elements/1.1/"
   xmlns:cc="http://creativecommons.org/ns#"
   xmlns:rdf="http://www.w3.org/1999/02/22-rdf-syntax-ns#"
   xmlns:svg="http://www.w3.org/2000/svg"
   xmlns="http://www.w3.org/2000/svg"
   xmlns:sodipodi="http://sodipodi.sourceforge.net/DTD/sodipodi-0.dtd"
   xmlns:inkscape="http://www.inkscape.org/namespaces/inkscape"
   width="100"
   height="100"
   viewBox="0 0 26.458332 26.458333"
   version="1.1"
   id="svg8"
   sodipodi:docname="Logo AW3.svg"
   inkscape:version="1.0.2 (1.0.2+r75+1)"
   inkscape:export-filename="/home/aaronwaruszewski/Documents/Logos/Mine/Logo AW3.png"
   inkscape:export-xdpi="96"
   inkscape:export-ydpi="96">
  <defs
     id="defs2" />
  <sodipodi:namedview
     id="base"
     pagecolor="#ffffff"
     bordercolor="#666666"
     borderopacity="1.0"
     inkscape:pageopacity="0.0"
     inkscape:pageshadow="2"
     inkscape:zoom="3.959798"
     inkscape:cx="19.084606"
     inkscape:cy="19.038934"
     inkscape:document-units="mm"
     inkscape:current-layer="layer1"
     inkscape:document-rotation="0"
     showgrid="false"
     units="px"
     width="49px"
     inkscape:window-width="1920"
     inkscape:window-height="1012"
     inkscape:window-x="1920"
     inkscape:window-y="32"
     inkscape:window-maximized="1" />
  <metadata
     id="metadata5">
    <rdf:RDF>
      <cc:Work
         rdf:about="">
        <dc:format>image/svg+xml</dc:format>
        <dc:type
           rdf:resource="http://purl.org/dc/dcmitype/StillImage" />
        <dc:title></dc:title>
      </cc:Work>
    </rdf:RDF>
  </metadata>
  <g
     inkscape:label="Layer 1"
     inkscape:groupmode="layer"
     id="layer1">
    <path
       style="fill:#ffffff;stroke:#ffffff;stroke-width:0.065;stroke-linecap:butt;stroke-linejoin:miter;stroke-opacity:1;opacity:1;stroke-miterlimit:4;stroke-dasharray:none"
       d="M 1.3017386,20.247368 C 6.5595618,4.0787441 6.5595618,4.0787441 6.5595618,4.0787441 L 9.0435947,4.0829944 14.40798,20.235555 14.2274,20.2365 13.697204,20.236539 8.5858416,4.7070821 7.0115417,4.6919641 2.1468963,20.247368 Z"
       id="path1925"
       sodipodi:nodetypes="ccccsccccc" />
    <path
       style="fill:none;stroke:#ffffff;stroke-width:0.065;stroke-linecap:butt;stroke-linejoin:miter;stroke-opacity:1;stroke-miterlimit:4;stroke-dasharray:none"
       d="m 4.6605449,12.415719 6.3819891,-0.01034 0.207386,0.57691 -6.8117851,-0.0059 z"
       id="path1927"
       sodipodi:nodetypes="ccccc" />
    <path
       style="fill:none;stroke:#ffffff;stroke-width:0.065;stroke-linecap:butt;stroke-linejoin:miter;stroke-opacity:1;stroke-miterlimit:4;stroke-dasharray:none"
       d="m 9.9930046,4.0871254 5.3974014,16.1536806 0.833252,-0.0064 2.098031,-6.283464 2.110166,6.290366 0.906756,0.0014 2.7488,-16.1623754 -0.835333,0.00717 -2.391046,14.9859314 -2.146689,-6.082493 -0.762216,0.02645 -2.133664,5.949383 -5.105856,-14.8718482 z"
       id="path1931"
       sodipodi:nodetypes="cccccccccccccc" />
    <path
       style="opacity:1;fill:#000000;stroke:#ffffff;stroke-width:0.0310204;stroke-linecap:round;stroke-miterlimit:4;stroke-dasharray:none;paint-order:stroke fill markers"
       d="M 6.212561,73.182353 C 6.7825805,71.426583 11.22314,57.760161 16.080472,42.81253 l 8.831511,-27.177514 4.566735,-0.0019 4.566736,-0.0019 2.151113,6.47129 c 3.295025,9.91256 17.772246,53.532157 17.873911,53.853758 0.08861,0.280293 0.0745,0.284105 -1.051151,0.284105 H 51.878365 L 50.880923,73.178336 C 49.462878,68.825108 32.645048,17.720799 32.618642,17.684778 32.606596,17.66835 31.199287,17.616799 29.491283,17.57022 l -3.105462,-0.08469 -0.416881,1.314113 c -0.229285,0.722763 -4.37063,13.956805 -9.202989,29.408982 l -8.786107,28.094868 -1.4018411,0.03558 -1.4018411,0.03558 z"
       id="path2798"
       transform="scale(0.26458333)" />
    <path
       style="opacity:1;fill:#000000;stroke:#ffffff;stroke-width:0.0310204;stroke-linecap:round;stroke-miterlimit:4;stroke-dasharray:none;paint-order:stroke fill markers"
       d="m 18.827225,48.871767 c 1.028606,-0.02125 2.676417,-0.0212 3.661803,1.09e-4 0.985385,0.02131 0.143798,0.03869 -1.870193,0.03863 -2.013992,-6e-5 -2.820217,-0.01749 -1.79161,-0.03874 z"
       id="path2800"
       transform="scale(0.26458333)" />
    <path
       style="opacity:1;fill:#000000;stroke:#ffffff;stroke-width:0.0310204;stroke-linecap:round;stroke-miterlimit:4;stroke-dasharray:none;paint-order:stroke fill markers"
       d="m 17.146435,48.735154 c 0,-0.05765 0.136849,-0.441193 0.304109,-0.852316 l 0.304109,-0.747497 11.932183,-0.03221 11.932182,-0.03221 0.264347,0.782771 c 0.14539,0.430524 0.264346,0.828559 0.264346,0.884522 0,0.05596 -5.625287,0.101751 -12.500638,0.101751 -6.875351,0 -12.500638,-0.04717 -12.500638,-0.104819 z"
       id="path2802"
       transform="scale(0.26458333)" />
    <path
       style="opacity:1;fill:#000000;stroke:#ffffff;stroke-width:0.0310204;stroke-linecap:round;stroke-miterlimit:4;stroke-dasharray:none;paint-order:stroke fill markers"
       d="m 58.310151,76.326607 c 0,-0.02201 -4.545686,-13.635739 -10.101525,-30.252724 C 42.652787,29.456897 38.1071,15.809438 38.1071,15.746195 c 0,-0.06324 0.501596,-0.114987 1.114656,-0.114987 h 1.114657 l 9.632162,28.063301 c 5.29769,15.434815 9.678886,28.148532 9.735992,28.252704 0.129437,0.236116 -0.420288,1.699972 4.291335,-11.427351 l 3.988174,-11.111678 1.318655,-0.03372 1.318655,-0.03372 4.027095,11.429506 c 2.432049,6.902519 4.089543,11.429506 4.184759,11.429506 0.08671,0 0.187128,-0.127847 0.223143,-0.284105 0.03602,-0.156258 2.072893,-12.88418 4.526395,-28.284272 l 4.460913,-28.000166 h 1.358806 c 0.747343,0 1.36065,0.04262 1.362904,0.0947 0.0023,0.05209 -2.310718,13.717556 -5.139938,30.367711 L 80.481427,76.36663 H 78.940973 77.400519 L 77.191501,75.766852 C 77.076541,75.436974 75.280738,70.08968 73.200828,63.883975 71.120917,57.67827 69.370376,52.513681 69.310737,52.40711 c -0.07462,-0.133333 -1.355583,3.547671 -4.107106,11.802245 l -3.998668,11.996011 -0.771448,0.08063 c -0.806708,0.08432 -2.123364,0.1095 -2.123364,0.04061 z"
       id="path2804"
       transform="scale(0.26458333)" />
  </g>
</svg>
