<?xml version="1.0" encoding="UTF-8" standalone="no"?>
<svg
   xmlns:dc="http://purl.org/dc/elements/1.1/"
   xmlns:cc="http://creativecommons.org/ns#"
   xmlns:rdf="http://www.w3.org/1999/02/22-rdf-syntax-ns#"
   xmlns:svg="http://www.w3.org/2000/svg"
   xmlns="http://www.w3.org/2000/svg"
   xmlns:sodipodi="http://sodipodi.sourceforge.net/DTD/sodipodi-0.dtd"
   xmlns:inkscape="http://www.inkscape.org/namespaces/inkscape"
   width="100"
   height="100"
   viewBox="0 0 26.458333 26.458334"
   version="1.1"
   id="svg8"
   inkscape:version="1.0.2 (1.0.2+r75+1)"
   sodipodi:docname="Logo A Favicon2.svg"
   title="Logo">
  <defs
     id="defs2" />
  <sodipodi:namedview
     id="base"
     pagecolor="#ffffff"
     bordercolor="#666666"
     borderopacity="1.0"
     inkscape:pageopacity="0.0"
     inkscape:pageshadow="2"
     inkscape:zoom="11.313709"
     inkscape:cx="42.126232"
     inkscape:cy="23.520081"
     inkscape:document-units="px"
     inkscape:current-layer="layer1"
     inkscape:document-rotation="0"
     showgrid="false"
     units="px"
     inkscape:window-width="1920"
     inkscape:window-height="1012"
     inkscape:window-x="1920"
     inkscape:window-y="32"
     inkscape:window-maximized="1">
    <inkscape:grid
       type="xygrid"
       id="grid5521" />
  </sodipodi:namedview>
  <metadata
     id="metadata5">
    <rdf:RDF>
      <cc:Work
         rdf:about="">
        <dc:format>image/svg+xml</dc:format>
        <dc:type
           rdf:resource="http://purl.org/dc/dcmitype/StillImage" />
        <dc:title></dc:title>
      </cc:Work>
    </rdf:RDF>
  </metadata>
  <g
     inkscape:label="Layer 1"
     inkscape:groupmode="layer"
     id="layer1">
    <rect
       style="fill:#ffffff;stroke-width:1.009;stroke-miterlimit:4;stroke-dasharray:none;paint-order:stroke fill markers"
       id="rect5519"
       width="26.457251"
       height="26.456957"
       x="-1.3877788e-17"
       y="0"
       ry="1.3279638" />
    <path
       style="fill:#000000;stroke-width:0.951819;paint-order:stroke fill markers"
       id="path837"
       d="m 4.8564361,22.924356 c 0.023462,-0.09613 0.039622,-0.194241 0.07038,-0.288441 0.1601952,-0.490627 0.3897634,-1.022033 0.6127318,-1.478512 0.4157423,-0.851135 0.9124968,-1.733905 1.4129346,-2.53558 0.3530926,-0.56564 0.7308885,-1.11643 1.0963344,-1.674644 1.7111464,-2.454011 3.6827961,-4.730175 5.8431921,-6.82318 1.115979,-1.081171 1.524018,-1.4026651 2.664821,-2.3792857 0.82937,-0.6800383 1.677524,-1.3422339 2.58962,-1.9162796 0.18022,-0.1134203 0.738127,-0.4266255 0.550964,-0.3243245 -1.222684,0.5390762 -0.502331,0.3163633 -0.502331,0.3163633 0.112227,-0.046923 0.188705,-0.082998 0.299967,-0.1178611 0.03555,-0.01114 0.07125,-0.015102 0.07094,-0.016826 -0.0029,-0.019545 -0.03206,-0.024604 -0.04944,-0.034908 -0.587528,-0.1371466 1.57494,-0.8906489 1.209941,-0.762451 -1.465162,0.5146058 -1.061243,0.4705158 -1.705285,1.062062 -1.220747,1.2220021 -2.047183,2.7501813 -2.711075,4.3107566 -0.214272,0.503668 -0.397065,1.019385 -0.595597,1.529077 -0.976939,2.87071 -1.611272,5.834506 -2.104541,8.814838 -0.112232,0.836511 -0.294872,1.667639 -0.316048,2.512736 0.02121,0.641949 1.326364,-0.551691 1.470014,-0.744687 0.0019,-0.0011 -0.04411,-0.208635 -0.04501,-0.213169 -0.04274,-0.88351 -0.339996,-1.72425 -0.634285,-2.552936 -0.546843,-1.547356 -1.441597,-2.927096 -2.385582,-4.269286 -0.377889,-0.539784 -0.804804,-1.044831 -1.19902,-1.572924 -0.301668,-0.577512 -1.91902,0.39978 -1.3982816,0.824727 0.4797404,0.233553 0.9823226,0.427666 1.4803756,0.622383 0.185215,0.05982 0.366796,0.131407 0.55562,0.179426 1.230153,0.312898 2.58781,0.374132 3.836929,0.13023 0.422929,-0.08258 0.831693,-0.222739 1.247538,-0.334111 0.431467,-0.170518 0.873673,-0.317466 1.294404,-0.511574 0.446275,-0.205894 0.881284,-0.436149 1.302628,-0.686603 1.693739,-1.006777 2.325228,-1.286183 3.495033,-2.617545 1.036369,-1.179496 1.564238,-2.250062 1.866043,-2.9111629 0.142521,-0.3628539 0.768071,-1.9640289 0.834617,-3.3507541 0.05354,-1.1157154 -0.01073,-2.0557492 -0.970815,-2.835259 -1.213915,-0.9855126 -2.90662,-0.9702095 -3.888718,-0.9298896 -0.67774,0.017388 -2.003914,0.295201 -2.969789,0.581095 -2.629539,0.7783312 -5.109767,2.0957128 -7.3403816,3.629701 -2.1360631,1.4689647 -4.2790971,3.5301761 -5.8042646,5.5971556 -0.719976,0.975748 -1.5436758,2.259952 -1.8622019,3.113551 -0.1925312,0.501004 -0.6618305,1.988788 -0.7790454,3.020324 -0.1774261,1.561417 0.1182286,3.528039 0.9674937,4.909977 0.3881334,0.631577 0.9274017,1.186556 1.5316139,1.630809 1.6023302,1.178124 3.8804588,1.323038 4.4033885,1.306104 0.8641872,0.0084 1.7694774,-0.122091 2.6280214,-0.322078 4.692053,-1.092942 8.569022,-4.431419 11.157656,-8.267463 0.61292,-0.908274 1.312189,-2.168167 1.606875,-2.859294 0.108848,-0.239188 0.541035,-1.722322 1.441998,-4.9100469 l -0.04864,0.022487 v 0 c 0,0 -1.82604,4.8514339 -1.970114,5.1373099 -0.560556,0.988502 -1.08276,1.974457 -1.726798,2.89947 -1.500606,2.155264 -2.79636,3.516434 -4.880232,5.152662 -0.620125,0.486913 -1.280141,0.941575 -1.99973,1.276005 -2.188252,1.017002 -4.7124658,1.215659 -5.2385428,1.20711 C 8.2836947,24.462097 6.553731,24.340318 4.95879,23.202703 4.3577266,22.773988 3.8151697,22.241711 3.4147318,21.631264 2.5276223,20.278916 2.1772034,18.426749 2.3202795,16.85811 2.4122073,15.850259 2.7924834,14.527483 3.024967,13.900642 3.2694674,13.256641 4.1088023,11.7948 4.8074367,10.838176 5.5858472,9.7723146 6.4787122,8.7812005 7.4352935,7.8616782 10.021514,5.3756477 13.046778,3.432916 16.544455,2.3962834 c 0.930285,-0.2757158 2.374272,-0.5018443 2.865336,-0.53687 0.433349,-0.047604 2.489602,0.020541 3.613605,0.9933429 0.914166,0.7911926 0.950606,1.6777366 0.895701,2.7782055 -0.07211,1.4454669 -0.65679,2.9527759 -0.834599,3.3076548 -0.198375,0.3990246 -0.875164,1.6888724 -1.927251,2.8536514 -0.370669,0.410372 -0.800389,0.765117 -1.206954,1.144001 -0.17559,0.14469 -0.179626,0.139673 -0.376469,0.275828 -0.922341,0.593683 -1.342321,0.769047 -2.348319,1.171501 -0.397813,0.106416 -0.78882,0.240541 -1.193432,0.319241 -1.395837,0.271485 -2.834985,0.179029 -4.155333,-0.328587 -0.467958,-0.198311 -0.922294,-0.420411 -1.378425,-0.642665 -0.5274324,-0.295107 -1.9600395,0.473024 -1.4019164,0.852725 0.4783539,0.461347 0.884597,0.989625 1.3161394,1.490538 1.007718,1.281659 1.902592,2.651718 2.447202,4.184944 0.26378,0.842378 0.533434,1.705961 0.460806,2.597455 -0.01779,0.197535 -0.0062,0.02936 -0.0091,0.18208 -4.35e-4,0.02339 -0.02535,0.07967 -0.0034,0.07008 0.07102,0.218008 1.558601,-0.431528 1.465654,-0.729692 -0.02144,-0.180843 -0.01483,-0.371357 -0.01261,-0.552576 0.0077,-0.610098 0.04936,-1.219697 0.115083,-1.826406 0.353944,-2.958956 0.919568,-5.902196 1.959139,-8.714156 0.213108,-0.513195 0.40846,-1.033662 0.639335,-1.5395814 0.717999,-1.5733556 1.637971,-3.1722908 2.954758,-4.3508039 0.08654,-0.067143 0.612821,-0.42422 0.513855,-0.3758571 -1.070921,0.5233425 -2.580377,1.5485374 0,0 0.02607,-0.015655 -0.01483,-0.099818 -0.0243,-0.1093696 -0.02344,-0.028402 -0.05846,-0.078519 -0.09583,-0.09406 -0.15967,-0.066391 -0.39126,0.090287 -0.516349,0.1423368 -1.743966,0.8332589 -3.320633,1.9046297 -4.748673,3.1805056 -1.054537,0.9383892 -1.49165,1.3044138 -2.529725,2.3334546 -2.132824,2.114254 -4.0871837,4.39538 -5.8187333,6.830793 -1.046363,1.512635 -1.1911225,1.664547 -2.0774492,3.141362 -0.5847101,0.97426 -1.1567004,1.979283 -1.5116337,3.057468 l 1.2357164,-0.578471 z"
       sodipodi:nodetypes="cssscscsccsccscscccccccccccscsssccccssscssscsscccscssscssscssscsscscccsccccccccccccsccccsccscsccc" />
  </g>
</svg>
