<?xml version="1.0" encoding="UTF-8" standalone="no"?>
<svg
   xmlns:dc="http://purl.org/dc/elements/1.1/"
   xmlns:cc="http://creativecommons.org/ns#"
   xmlns:rdf="http://www.w3.org/1999/02/22-rdf-syntax-ns#"
   xmlns:svg="http://www.w3.org/2000/svg"
   xmlns="http://www.w3.org/2000/svg"
   xmlns:sodipodi="http://sodipodi.sourceforge.net/DTD/sodipodi-0.dtd"
   xmlns:inkscape="http://www.inkscape.org/namespaces/inkscape"
   width="504"
   height="445"
   viewBox="0 0 133.35001 117.73959"
   version="1.1"
   id="svg2835"
   inkscape:version="1.0.2 (1.0.2+r75+1)"
   sodipodi:docname="Repeat Customers 2.svg">
  <defs
     id="defs2829">
    <marker
       style="overflow:visible"
       id="Arrow1Lstart"
       refX="0"
       refY="0"
       orient="auto"
       inkscape:stockid="Arrow1Lstart"
       inkscape:isstock="true">
      <path
         transform="matrix(0.8,0,0,0.8,10,0)"
         style="fill:#000000;fill-opacity:1;fill-rule:evenodd;stroke:#000000;stroke-width:1pt;stroke-opacity:1"
         d="M 0,0 5,-5 -12.5,0 5,5 Z"
         id="path3576" />
    </marker>
    <marker
       style="overflow:visible"
       id="Arrow1Lend"
       refX="0"
       refY="0"
       orient="auto"
       inkscape:stockid="Arrow1Lend"
       inkscape:isstock="true">
      <path
         transform="matrix(-0.8,0,0,-0.8,-10,0)"
         style="fill:#000000;fill-opacity:1;fill-rule:evenodd;stroke:#000000;stroke-width:1pt;stroke-opacity:1"
         d="M 0,0 5,-5 -12.5,0 5,5 Z"
         id="path3579" />
    </marker>
  </defs>
  <sodipodi:namedview
     id="base"
     pagecolor="#ffffff"
     bordercolor="#666666"
     borderopacity="1.0"
     inkscape:pageopacity="0.0"
     inkscape:pageshadow="2"
     inkscape:zoom="11.2"
     inkscape:cx="252.06496"
     inkscape:cy="467.13415"
     inkscape:document-units="px"
     inkscape:current-layer="layer1"
     inkscape:document-rotation="0"
     showgrid="true"
     units="px"
     inkscape:window-width="1920"
     inkscape:window-height="1012"
     inkscape:window-x="1920"
     inkscape:window-y="32"
     inkscape:window-maximized="1">
    <sodipodi:guide
       position="0,132.29167"
       orientation="0,500"
       id="guide3398" />
    <sodipodi:guide
       position="132.29167,119.0625"
       orientation="500,0"
       id="guide3400" />
    <sodipodi:guide
       position="134.9375,0"
       orientation="0,-500"
       id="guide3402" />
    <sodipodi:guide
       position="0,116.41667"
       orientation="-500,0"
       id="guide3404" />
    <inkscape:grid
       type="xygrid"
       id="grid3406"
       dotted="true" />
  </sodipodi:namedview>
  <metadata
     id="metadata2832">
    <rdf:RDF>
      <cc:Work
         rdf:about="">
        <dc:format>image/svg+xml</dc:format>
        <dc:type
           rdf:resource="http://purl.org/dc/dcmitype/StillImage" />
        <dc:title></dc:title>
      </cc:Work>
    </rdf:RDF>
  </metadata>
  <g
     inkscape:label="Layer 1"
     inkscape:groupmode="layer"
     id="layer1">
    <path
       style="fill:#000000;fill-opacity:1;stroke:#ffffff;stroke-width:1.32292;stroke-linecap:butt;stroke-linejoin:miter;stroke-miterlimit:4;stroke-dasharray:none;stroke-opacity:1"
       d="m 73.483343,77.390629 c 5.197518,1.70779 23.712198,1.81926 29.104187,0 2.64583,-1.32292 1.12915,-13.22917 -1.51668,-15.875 -3.968769,-3.96875 -22.489599,-3.96875 -26.458353,0 -2.645834,2.64583 -3.774987,14.55208 -1.129154,15.875 z"
       id="path3439-1"
       sodipodi:nodetypes="ccccc" />
    <path
       style="fill:#000000;fill-opacity:1;stroke:#ffffff;stroke-width:1.32292;stroke-linecap:butt;stroke-linejoin:miter;stroke-miterlimit:4;stroke-dasharray:none;stroke-opacity:1"
       d="m 31.150009,77.390629 c 5.197518,1.70779 23.712198,1.81926 29.104176,0 2.64583,-1.32292 1.12915,-13.22917 -1.51668,-15.875 -3.968758,-3.96875 -22.489588,-3.96875 -26.458342,0 -2.645834,2.64583 -3.774987,14.55208 -1.129154,15.875 z"
       id="path3439-1-6"
       sodipodi:nodetypes="ccccc" />
    <path
       style="fill:#000000;stroke:#ffffff;stroke-width:1.32292;stroke-linecap:butt;stroke-linejoin:miter;stroke-miterlimit:4;stroke-dasharray:none;stroke-opacity:1"
       d="m 45.508327,32.411458 c 7.9375,0 13.229178,5.291666 13.229178,13.229167 0,7.9375 -5.291678,13.229164 -13.229178,13.229164 -7.9375,0 -13.229164,-5.291664 -13.229164,-13.229164 0,-7.937501 5.291664,-13.229167 13.229164,-13.229167 z"
       id="path3408-58-7"
       sodipodi:nodetypes="ccccc" />
    <path
       style="fill:#000000;fill-opacity:1;stroke:#ffffff;stroke-width:1.32292;stroke-linecap:butt;stroke-linejoin:miter;stroke-miterlimit:4;stroke-dasharray:none;stroke-opacity:1"
       d="m 52.316673,80.036459 c 5.197516,1.707791 23.712204,1.81926 29.104167,0 2.645834,-1.322917 1.129155,-13.229167 -1.516679,-15.875001 -3.96875,-3.96875 -22.489584,-3.96875 -26.458334,0 -2.645834,2.645834 -3.774987,14.552084 -1.129154,15.875001 z"
       id="path3439"
       sodipodi:nodetypes="ccccc" />
    <path
       style="fill:#000000;stroke:#ffffff;stroke-width:1.32292;stroke-linecap:butt;stroke-linejoin:miter;stroke-miterlimit:4;stroke-dasharray:none;stroke-opacity:1"
       d="m 87.841661,32.411458 c 7.9375,0 13.229189,5.291666 13.229189,13.229167 0,7.9375 -5.291689,13.229164 -13.229189,13.229164 -7.9375,0 -13.229164,-5.291664 -13.229164,-13.229164 0,-7.937501 5.291664,-13.229167 13.229164,-13.229167 z"
       id="path3408-58"
       sodipodi:nodetypes="ccccc" />
    <path
       style="fill:#000000;stroke:#ffffff;stroke-width:1.32292;stroke-linecap:butt;stroke-linejoin:miter;stroke-miterlimit:4;stroke-dasharray:none;stroke-opacity:1"
       d="m 66.674994,35.057291 c 7.9375,0 13.229167,5.291666 13.229167,13.229167 0,7.9375 -5.291667,13.229167 -13.229167,13.229167 -7.9375,0 -13.229167,-5.291667 -13.229167,-13.229167 0,-7.937501 5.291667,-13.229167 13.229167,-13.229167 z"
       id="path3408"
       sodipodi:nodetypes="ccccc" />
    <path
       style="fill:none;stroke:#000000;stroke-width:6.61458;stroke-linecap:butt;stroke-linejoin:miter;stroke-miterlimit:4;stroke-dasharray:none;stroke-opacity:1"
       d="m 122.23751,53.578125 c 0,-26.458334 -26.458349,-50.2708349 -55.562516,-50.2708349 -29.104167,0 -55.562501,23.8125009 -55.562501,50.2708349"
       id="path4044"
       sodipodi:nodetypes="ccc" />
    <path
       style="fill:none;stroke:#000000;stroke-width:6.61458;stroke-linecap:round;stroke-linejoin:round;stroke-miterlimit:4;stroke-dasharray:none;stroke-opacity:1"
       d="m 3.3072901,48.947919 7.9374979,7.9375 7.9375,-7.9375"
       id="path4052"
       sodipodi:nodetypes="ccc" />
    <path
       style="fill:none;stroke:#000000;stroke-width:6.61458;stroke-linecap:round;stroke-linejoin:round;stroke-miterlimit:4;stroke-dasharray:none;stroke-opacity:1"
       d="m 130.04282,68.79156 -7.93761,-7.93739 -7.93739,7.93761"
       id="path4052-9"
       sodipodi:nodetypes="ccc" />
    <path
       style="fill:none;stroke:#000000;stroke-width:6.61458;stroke-linecap:butt;stroke-linejoin:miter;stroke-miterlimit:4;stroke-dasharray:none;stroke-opacity:1"
       d="m 11.112489,64.161459 c 0,26.458343 26.458334,50.270841 55.562502,50.270841 29.104166,0 55.562519,-23.812498 55.562519,-50.270841"
       id="path4044-0"
       sodipodi:nodetypes="ccc" />
  </g>
</svg>
